<svg width="16" height="16" viewBox="0 0 16 16" fill="none" xmlns="http://www.w3.org/2000/svg">
<path d="M7.99731 1.33276C7.1221 1.33281 6.25546 1.50524 5.44689 1.84021C4.63831 2.17518 3.90364 2.66613 3.2848 3.28502C2.66596 3.90392 2.17508 4.63865 1.8402 5.44726C1.50531 6.25587 1.33296 7.12252 1.33301 7.99773C1.33305 8.87294 1.50548 9.73957 1.84045 10.5481C2.17542 11.3567 2.66637 12.0914 3.28527 12.7102C3.90417 13.3291 4.6389 13.82 5.4475 14.1548C6.25611 14.4897 7.12276 14.6621 7.99797 14.662C9.76554 14.6619 11.4607 13.9597 12.7105 12.7098C13.9603 11.4598 14.6624 9.76463 14.6623 7.99706C14.6622 6.22949 13.9599 4.53435 12.71 3.28455C11.4601 2.03476 9.76488 1.33268 7.99731 1.33276ZM8.66374 10.6628H7.33088V9.32992H8.66374V10.6628ZM8.66374 7.99706H7.33088V3.99848H8.66374V7.99706Z" fill="#2563EB"/>
</svg>
