<svg width="16" height="16" viewBox="0 0 16 16" fill="none" xmlns="http://www.w3.org/2000/svg">
<path d="M2 10.6666V4.66659C2 4.31296 2.14048 3.97382 2.39052 3.72378C2.64057 3.47373 2.97971 3.33325 3.33333 3.33325H10V10.6666H2Z" stroke="#0B1220" stroke-width="1.33333" stroke-linejoin="round"/>
<path d="M10 6H12L14 8V10.6667H10V6Z" stroke="#0B1220" stroke-width="1.33333" stroke-linejoin="round"/>
<path d="M4.6665 12C4.3129 12.0001 3.97382 12.1406 3.72384 12.3907C3.47386 12.6408 3.33345 12.9799 3.3335 13.3335C3.33354 13.6871 3.47404 14.0262 3.72408 14.2762C3.97412 14.5262 4.31324 14.6667 4.66683 14.6667C5.02042 14.6667 5.35954 14.5262 5.60958 14.2762C5.85962 14.0262 6.00012 13.6871 6.00016 13.3335C6.00021 12.9799 5.8598 12.6408 5.60982 12.3907C5.35983 12.1406 5.02009 12.0001 4.6665 12Z" fill="#0B1220"/>
<path d="M12 12C11.6464 12.0001 11.3073 12.1406 11.0573 12.3907C10.8074 12.6408 10.6669 12.9799 10.667 13.3335C10.667 13.6871 10.8075 14.0262 11.0576 14.2762C11.3076 14.5262 11.6467 14.6667 12.0003 14.6667C12.3539 14.6667 12.693 14.5262 12.9431 14.2762C13.1931 14.0262 13.3336 13.6871 13.3337 13.3335C13.3337 12.9799 13.1933 12.6408 12.9433 12.3907C12.6933 12.1406 12.3536 12.0001 12 12Z" fill="#0B1220"/>
</svg>
